<?xml version="1.0" encoding="utf-8"?>
<!-- Generator: Adobe Illustrator 26.0.1, SVG Export Plug-In . SVG Version: 6.00 Build 0)  -->
<svg version="1.1" id="Livello_1" xmlns="http://www.w3.org/2000/svg" xmlns:xlink="http://www.w3.org/1999/xlink" x="0px" y="0px"
	 viewBox="0 0 200 200" style="enable-background:new 0 0 200 200;" xml:space="preserve">
<style type="text/css">
	.st0{fill:#FFFFFF;}
	.st1{fill:#1A73E8;}
	.st2{fill:#EA4335;}
	.st3{fill:#34A853;}
	.st4{fill:#4285F4;}
	.st5{fill:#188038;}
	.st6{fill:#FBBC04;}
	.st7{fill:#1967D2;}
</style>
<g>
	<g transform="translate(3.75 3.75)">
		<path class="st0" d="M148.9,43.6l-47.4-5.3l-57.9,5.3l-5.3,52.6l5.3,52.6l52.6,6.6l52.6-6.6l5.3-53.9L148.9,43.6z"/>
		<path class="st1" d="M65.2,125.3c-3.9-2.7-6.7-6.5-8.1-11.7l9.1-3.8c0.8,3.2,2.3,5.6,4.3,7.3c2.1,1.7,4.6,2.6,7.5,2.6
			c3,0,5.6-0.9,7.7-2.7s3.2-4.1,3.2-6.9c0-2.9-1.1-5.2-3.4-7s-5.1-2.7-8.5-2.7h-5.3v-9h4.7c2.9,0,5.4-0.8,7.4-2.4c2-1.6,3-3.7,3-6.5
			c0-2.4-0.9-4.4-2.7-5.9s-4.1-2.2-6.8-2.2c-2.7,0-4.8,0.7-6.4,2.1s-2.7,3.2-3.4,5.3l-9-3.8c1.2-3.4,3.4-6.4,6.6-9
			c3.2-2.6,7.3-3.9,12.3-3.9c3.7,0,7,0.7,10,2.1c2.9,1.4,5.3,3.4,6.9,5.9c1.7,2.5,2.5,5.4,2.5,8.5c0,3.2-0.8,5.9-2.3,8.2
			s-3.5,3.9-5.7,5.1v0.5c3,1.2,5.4,3.2,7.3,5.7c1.9,2.6,2.9,5.6,2.9,9.2s-0.9,6.8-2.7,9.6s-4.3,5-7.5,6.6c-3.2,1.6-6.8,2.4-10.8,2.4
			C73.4,129.3,69.1,127.9,65.2,125.3z"/>
		<path class="st1" d="M121.2,80l-10,7.2l-5-7.6l18-13h6.9v61.2h-9.9V80z"/>
		<path class="st2" d="M148.9,196.2l47.4-47.4l-23.7-10.5l-23.7,10.5l-10.5,23.7L148.9,196.2z"/>
		<path class="st3" d="M33.1,172.6l10.5,23.7h105.3v-47.4H43.6L33.1,172.6z"/>
		<path class="st4" d="M12-3.8C3.3-3.8-3.8,3.3-3.8,12v136.8l23.7,10.5l23.7-10.5V43.6h105.3l10.5-23.7L148.9-3.8H12z"/>
		<path class="st5" d="M-3.8,148.9v31.6c0,8.7,7.1,15.8,15.8,15.8h31.6v-47.4H-3.8z"/>
		<path class="st6" d="M148.9,43.6v105.3h47.4V43.6l-23.7-10.5L148.9,43.6z"/>
		<path class="st7" d="M196.2,43.6V12c0-8.7-7.1-15.8-15.8-15.8h-31.6v47.4H196.2z"/>
	</g>
</g>
</svg>
